# xmcd CD database file
#
# Track frame offsets:
#	150
#	14690
#	31790
#	53447
#	68387
#	83895
#	101065
#	115055
#	130737
#	146875
#
# Disc length: 2150 seconds
#
# Revision: 0
# Processed by: cddbd v1.5.2PL0 Copyright (c) Steve Scherf et al.
# Submitted via: CDex 1.70beta2
#
DISCID=7c08640a
DTITLE=naomi&goro - P.S. I Forgot
DYEAR=2006
DGENRE=Jazz
TTITLE0=Valsa da Bastille
TTITLE1=Ran into Bookstore
TTITLE2=No Return (P.S. I Forgot version)
TTITLE3=Walking
TTITLE4=Café
TTITLE5=ELA É CARIOCA
TTITLE6=GENTE
TTITLE7=AVARANDADO
TTITLE8=Song for SENNA (P.S. I Forgot version)
TTITLE9=夜明けの歌
EXTD=YEAR: 2006
EXTT0=
EXTT1=
EXTT2=
EXTT3=
EXTT4=
EXTT5=
EXTT6=
EXTT7=
EXTT8=
EXTT9=
PLAYORDER=
